<svg id="Illustration" xmlns="http://www.w3.org/2000/svg" xmlns:xlink="http://www.w3.org/1999/xlink" viewBox="0 0 400 400"><defs><style>.cls-1{fill:#333;}.cls-2{fill:url(#linear-gradient);}.cls-3{fill:#abd6ab;}.cls-4{fill:url(#linear-gradient-2);}.cls-5{fill:#555;}.cls-6{fill:url(#linear-gradient-3);}.cls-7{font-size:73.2px;fill:#eee;font-family:MyriadPro-Regular, Myriad Pro;}.cls-8{fill:url(#linear-gradient-4);}.cls-9{fill:url(#linear-gradient-5);}.cls-10,.cls-19{fill:#fff;}.cls-10{opacity:0.78;}.cls-11{fill:url(#linear-gradient-6);}.cls-12{fill:url(#linear-gradient-7);}.cls-13{fill:url(#linear-gradient-8);}.cls-14{fill:url(#linear-gradient-9);}.cls-15{fill:url(#linear-gradient-10);}.cls-16{fill:url(#linear-gradient-11);}.cls-17{fill:url(#linear-gradient-12);}.cls-18{fill:url(#linear-gradient-13);}.cls-20{fill:url(#linear-gradient-14);}.cls-21{fill:url(#linear-gradient-15);}.cls-22{fill:url(#linear-gradient-16);}.cls-23{fill:url(#linear-gradient-17);}.cls-24{fill:url(#linear-gradient-18);}.cls-25{fill:url(#linear-gradient-19);}.cls-26{fill:url(#linear-gradient-20);}</style><linearGradient id="linear-gradient" x1="206.68" y1="136.48" x2="206.68" y2="209.86" gradientUnits="userSpaceOnUse"><stop offset="0" stop-color="#2fbb1c"/><stop offset="0.31" stop-color="#2fb91c"/><stop offset="0.47" stop-color="#2fb11c"/><stop offset="0.59" stop-color="#2fa41c"/><stop offset="0.69" stop-color="#2f911c"/><stop offset="0.79" stop-color="#2f781c"/><stop offset="0.87" stop-color="#2f5a1c"/><stop offset="0.95" stop-color="#2f371c"/><stop offset="1" stop-color="#2f1d1c"/></linearGradient><linearGradient id="linear-gradient-2" x1="203.53" y1="237.68" x2="206.46" y2="136.88" gradientUnits="userSpaceOnUse"><stop offset="0" stop-color="#2fbb1c"/><stop offset="0.18" stop-color="#2eb723"/><stop offset="0.44" stop-color="#2dad35"/><stop offset="0.73" stop-color="#2a9c53"/><stop offset="1" stop-color="#278974"/></linearGradient><linearGradient id="linear-gradient-3" x1="206.36" y1="75.31" x2="297.91" y2="-53.16" gradientUnits="userSpaceOnUse"><stop offset="0" stop-color="#59ac67"/><stop offset="1" stop-color="#abd6ab"/></linearGradient><linearGradient id="linear-gradient-4" x1="83.34" y1="85.9" x2="116.52" y2="47.39" gradientUnits="userSpaceOnUse"><stop offset="0" stop-color="#2fbb1c"/><stop offset="1" stop-color="#278974"/></linearGradient><linearGradient id="linear-gradient-5" x1="135.25" y1="19.32" x2="37.21" y2="167.43" gradientUnits="userSpaceOnUse"><stop offset="0" stop-color="#2fbb1c"/><stop offset="0.98" stop-color="#278974"/></linearGradient><linearGradient id="linear-gradient-6" x1="121.7" y1="34.15" x2="73.9" y2="100.86" xlink:href="#linear-gradient-4"/><linearGradient id="linear-gradient-7" x1="128.65" y1="39.06" x2="80.76" y2="105.89" xlink:href="#linear-gradient-4"/><linearGradient id="linear-gradient-8" x1="134.78" y1="109.87" x2="167.96" y2="71.36" xlink:href="#linear-gradient-4"/><linearGradient id="linear-gradient-9" x1="186.7" y1="43.29" x2="88.66" y2="191.4" xlink:href="#linear-gradient-4"/><linearGradient id="linear-gradient-10" x1="173.15" y1="58.12" x2="125.35" y2="124.83" xlink:href="#linear-gradient-4"/><linearGradient id="linear-gradient-11" x1="180.1" y1="63.03" x2="132.21" y2="129.87" xlink:href="#linear-gradient-4"/><linearGradient id="linear-gradient-12" x1="201.61" y1="109.87" x2="234.79" y2="71.36" xlink:href="#linear-gradient-4"/><linearGradient id="linear-gradient-13" x1="253.53" y1="43.29" x2="155.48" y2="191.4" xlink:href="#linear-gradient-4"/><linearGradient id="linear-gradient-14" x1="239.97" y1="58.12" x2="192.17" y2="124.83" xlink:href="#linear-gradient-4"/><linearGradient id="linear-gradient-15" x1="246.92" y1="63.03" x2="199.03" y2="129.87" xlink:href="#linear-gradient-4"/><linearGradient id="linear-gradient-16" x1="252.15" y1="88.05" x2="285.33" y2="49.54" xlink:href="#linear-gradient-4"/><linearGradient id="linear-gradient-17" x1="304.06" y1="21.47" x2="206.02" y2="169.58" xlink:href="#linear-gradient-4"/><linearGradient id="linear-gradient-18" x1="290.51" y1="36.3" x2="242.71" y2="103.01" xlink:href="#linear-gradient-4"/><linearGradient id="linear-gradient-19" x1="297.46" y1="41.21" x2="249.57" y2="108.04" xlink:href="#linear-gradient-4"/><linearGradient id="linear-gradient-20" x1="18.59" y1="346.5" x2="379.83" y2="346.5" gradientUnits="userSpaceOnUse"><stop offset="0" stop-color="#2fbb1c"/><stop offset="0.01" stop-color="#30b81e"/><stop offset="0.21" stop-color="#3d9531"/><stop offset="0.41" stop-color="#487941"/><stop offset="0.6" stop-color="#4f654c"/><stop offset="0.8" stop-color="#545953"/><stop offset="1" stop-color="#555"/></linearGradient></defs><title>Artboard 34</title><path class="cls-1" d="M256,219.42c0,1.61-22.25,4.75-50,4.75s-49.3-3.5-49.3-5.11,21.28-2.55,49-2.55S256,217.81,256,219.42Z"/><path class="cls-2" d="M276.71,147.58c0,2-34.87,7-74,7s-66-4.89-66-6.92,30.24-3.5,69.41-3.5S276.71,145.55,276.71,147.58Z"/><path class="cls-3" d="M267.56,138.93a982,982,0,0,1-125.92-.24,11.65,11.65,0,0,1-10.48-8.4L115.85,77.06a1.27,1.27,0,0,1,1.35-1.61c58.17,5.56,117.5,5.41,177.93,0a1.28,1.28,0,0,1,1.35,1.63l-14.69,50.49A15.84,15.84,0,0,1,267.56,138.93Z"/><path class="cls-4" d="M251.19,210.91a404.72,404.72,0,0,1-91-.06,9.34,9.34,0,0,1-7.9-6.57l-16.7-55.52a.86.86,0,0,1,1.06-1.06c22.36,6.22,120.1,6.73,139.37-.09a.51.51,0,0,1,.66.63l-16.74,55.43A10.32,10.32,0,0,1,251.19,210.91Z"/><path class="cls-5" d="M230.54,282.8a175.94,175.94,0,0,1-49.79-.09,9.54,9.54,0,0,1-7.81-6.67L156.1,220a.77.77,0,0,1,.87-1c31.5,5,69.2,4.75,97.7.07a1,1,0,0,1,1.13,1.29l-16.61,55A10.56,10.56,0,0,1,230.54,282.8Z"/><path class="cls-6" d="M295.83,75.58c0,2.37-39.5,4.29-89.66,4.29S116.51,78,116.51,75.58s39.49-4.29,89.66-4.29S295.83,73.21,295.83,75.58Z"/><text class="cls-7" transform="translate(186.72 270.72) scale(1.01 1)">$</text><ellipse class="cls-8" cx="117.19" cy="46.61" rx="24.83" ry="24.67"/><ellipse class="cls-9" cx="117.19" cy="46.61" rx="24" ry="23.85"/><path class="cls-10" d="M95.06,45.67h0a.23.23,0,0,1-.21-.24,23.35,23.35,0,0,1,.32-2.79.23.23,0,0,1,.27-.19.24.24,0,0,1,.18.27,22.59,22.59,0,0,0-.32,2.73A.24.24,0,0,1,95.06,45.67Z"/><path class="cls-10" d="M97.4,36.93a.17.17,0,0,1-.1,0,.21.21,0,0,1-.1-.3,22.28,22.28,0,0,1,20-12.23,22.82,22.82,0,0,1,4,.36.23.23,0,0,1,.18.26.23.23,0,0,1-.27.18,22.58,22.58,0,0,0-4-.35,21.86,21.86,0,0,0-19.59,12A.23.23,0,0,1,97.4,36.93Z"/><ellipse class="cls-10" cx="117.71" cy="47.13" rx="20.31" ry="20.19"/><path class="cls-11" d="M123.93,39.5c0,3.42-2.79,7.11-6.23,7.11s-6.23-3.69-6.23-7.11a6.24,6.24,0,0,1,12.46,0Z"/><path class="cls-12" d="M110,59.77h15.21a3.68,3.68,0,0,0,3.5-2.54l.82-2.54a3.66,3.66,0,0,0-2.22-4.55c-6.19-2.25-12.59-2-19.14.21a3.63,3.63,0,0,0-2.35,4.41l.63,2.31A3.68,3.68,0,0,0,110,59.77Z"/><ellipse class="cls-13" cx="168.63" cy="70.58" rx="24.83" ry="24.67"/><ellipse class="cls-14" cx="168.63" cy="70.58" rx="24" ry="23.85"/><path class="cls-10" d="M146.51,69.64h0a.23.23,0,0,1-.22-.24,21.88,21.88,0,0,1,.33-2.79.23.23,0,0,1,.26-.19.24.24,0,0,1,.19.27,21,21,0,0,0-.32,2.73A.23.23,0,0,1,146.51,69.64Z"/><path class="cls-10" d="M148.84,60.9l-.1,0a.23.23,0,0,1-.1-.3,22.31,22.31,0,0,1,20-12.23,22.65,22.65,0,0,1,4,.36.23.23,0,0,1,.19.26.23.23,0,0,1-.27.18,22.78,22.78,0,0,0-4-.35,21.84,21.84,0,0,0-19.58,12A.23.23,0,0,1,148.84,60.9Z"/><ellipse class="cls-10" cx="169.16" cy="71.1" rx="20.31" ry="20.19"/><path class="cls-15" d="M175.38,63.47c0,3.42-2.79,7.11-6.23,7.11s-6.23-3.69-6.23-7.11a6.24,6.24,0,0,1,12.46,0Z"/><path class="cls-16" d="M161.42,83.74h15.2a3.69,3.69,0,0,0,3.51-2.54l.82-2.54a3.66,3.66,0,0,0-2.22-4.55c-6.19-2.25-12.59-2-19.14.21a3.63,3.63,0,0,0-2.35,4.41l.63,2.31A3.66,3.66,0,0,0,161.42,83.74Z"/><ellipse class="cls-17" cx="235.46" cy="70.58" rx="24.83" ry="24.67"/><ellipse class="cls-18" cx="235.46" cy="70.58" rx="24" ry="23.85"/><path class="cls-19" d="M213.34,69.64h0a.22.22,0,0,1-.21-.24,23.83,23.83,0,0,1,.32-2.79.23.23,0,1,1,.45.08,22.83,22.83,0,0,0-.32,2.73A.22.22,0,0,1,213.34,69.64Z"/><path class="cls-10" d="M215.67,60.9a.19.19,0,0,1-.1,0,.22.22,0,0,1-.1-.3,22.3,22.3,0,0,1,20-12.23,22.73,22.73,0,0,1,4,.36.23.23,0,0,1,.18.26.22.22,0,0,1-.26.18,22.78,22.78,0,0,0-4-.35,21.86,21.86,0,0,0-19.59,12A.23.23,0,0,1,215.67,60.9Z"/><ellipse class="cls-10" cx="235.98" cy="71.1" rx="20.31" ry="20.19"/><path class="cls-20" d="M242.2,63.47c0,3.42-2.79,7.11-6.23,7.11s-6.22-3.69-6.22-7.11a6.24,6.24,0,0,1,12.45,0Z"/><path class="cls-21" d="M228.25,83.74h15.2A3.67,3.67,0,0,0,247,81.2l.82-2.54a3.65,3.65,0,0,0-2.22-4.55c-6.19-2.25-12.58-2-19.14.21a3.65,3.65,0,0,0-2.35,4.41l.63,2.31A3.68,3.68,0,0,0,228.25,83.74Z"/><ellipse class="cls-22" cx="286" cy="48.76" rx="24.83" ry="24.67"/><ellipse class="cls-23" cx="286" cy="48.76" rx="24" ry="23.85"/><path class="cls-10" d="M263.87,47.82h0a.23.23,0,0,1-.21-.24,23.35,23.35,0,0,1,.32-2.79.23.23,0,0,1,.27-.19.24.24,0,0,1,.18.27,22.83,22.83,0,0,0-.32,2.73A.24.24,0,0,1,263.87,47.82Z"/><path class="cls-10" d="M266.21,39.08a.17.17,0,0,1-.1,0,.21.21,0,0,1-.1-.3,22.28,22.28,0,0,1,20-12.23,22.82,22.82,0,0,1,4,.36.23.23,0,0,1,.18.26.23.23,0,0,1-.27.18A22.58,22.58,0,0,0,286,27a21.86,21.86,0,0,0-19.59,12A.23.23,0,0,1,266.21,39.08Z"/><ellipse class="cls-10" cx="286.52" cy="49.28" rx="20.31" ry="20.19"/><path class="cls-24" d="M292.74,41.65c0,3.42-2.79,7.11-6.23,7.11s-6.23-3.69-6.23-7.11a6.24,6.24,0,0,1,12.46,0Z"/><path class="cls-25" d="M278.78,61.92H294a3.68,3.68,0,0,0,3.5-2.54l.82-2.54a3.66,3.66,0,0,0-2.22-4.55c-6.19-2.25-12.59-2-19.14.21a3.64,3.64,0,0,0-2.35,4.41l.63,2.31A3.68,3.68,0,0,0,278.78,61.92Z"/><path class="cls-26" d="M25.77,336l-7.18-28.32h3.86L25.81,322c.84,3.53,1.6,7.06,2.1,9.79H28c.46-2.82,1.34-6.18,2.31-9.83l3.78-14.29h3.82L41.35,322c.8,3.36,1.56,6.72,2,9.7h.08c.59-3.1,1.39-6.25,2.27-9.78l3.74-14.29h3.74l-8,28.32H41.31l-3.57-14.75A86,86,0,0,1,35.89,312h-.08a86.75,86.75,0,0,1-2.18,9.24l-4,14.75Z"/><path class="cls-26" d="M77.14,335.05a18,18,0,0,1-7.48,1.35c-8,0-14-5-14-14.33,0-8.86,6-14.87,14.79-14.87a15.24,15.24,0,0,1,6.72,1.26l-.88,3a13.21,13.21,0,0,0-5.72-1.18c-6.63,0-11,4.24-11,11.68,0,6.93,4,11.38,10.88,11.38a14.7,14.7,0,0,0,6-1.17Z"/><path class="cls-26" d="M111.75,335.05a18,18,0,0,1-7.48,1.35c-8,0-14-5-14-14.33,0-8.86,6-14.87,14.79-14.87a15.28,15.28,0,0,1,6.72,1.26l-.89,3a13.16,13.16,0,0,0-5.71-1.18c-6.64,0-11,4.24-11,11.68,0,6.93,4,11.38,10.88,11.38a14.71,14.71,0,0,0,6-1.17Z"/><path class="cls-26" d="M116.87,306.15h3.69v12.69h.09a6.83,6.83,0,0,1,2.64-2.61,7.62,7.62,0,0,1,3.78-1.05c2.73,0,7.1,1.68,7.1,8.7V336h-3.69V324.3c0-3.28-1.22-6.05-4.71-6.05a5.33,5.33,0,0,0-5,3.7,4.46,4.46,0,0,0-.25,1.76V336h-3.69Z"/><path class="cls-26" d="M142.91,326.48c.08,5,3.27,7.06,7,7.06a13.38,13.38,0,0,0,5.63-1.05l.63,2.65a16.45,16.45,0,0,1-6.77,1.26c-6.25,0-10-4.12-10-10.25s3.61-11,9.53-11c6.64,0,8.4,5.84,8.4,9.58a14.38,14.38,0,0,1-.12,1.72Zm10.83-2.64c0-2.35-1-6-5.12-6-3.74,0-5.38,3.45-5.67,6Z"/><path class="cls-26" d="M177.05,335.22a13.5,13.5,0,0,1-5.84,1.18c-6.13,0-10.12-4.16-10.12-10.38s4.28-10.79,10.92-10.79a12.28,12.28,0,0,1,5.13,1l-.84,2.85a8.66,8.66,0,0,0-4.29-1c-4.66,0-7.18,3.44-7.18,7.68,0,4.71,3,7.61,7.06,7.61a10.49,10.49,0,0,0,4.53-1Z"/><path class="cls-26" d="M185.7,325h.09c.5-.71,1.22-1.59,1.8-2.31l6-7H198L190.16,324l8.94,12h-4.49l-7-9.75-1.89,2.1V336h-3.65V306.15h3.65Z"/><path class="cls-26" d="M220.82,325.64c0,7.52-5.21,10.8-10.13,10.8-5.5,0-9.74-4-9.74-10.46,0-6.81,4.45-10.8,10.08-10.8C216.87,315.18,220.82,319.43,220.82,325.64Zm-16.13.21c0,4.46,2.56,7.82,6.17,7.82s6.18-3.32,6.18-7.9c0-3.44-1.72-7.81-6.09-7.81S204.69,322,204.69,325.85Z"/><path class="cls-26" d="M243.16,330.43c0,2.1,0,3.95.17,5.55h-3.28l-.21-3.32h-.08a7.65,7.65,0,0,1-6.72,3.78c-3.19,0-7-1.76-7-8.91V315.65h3.7V326.9c0,3.87,1.18,6.47,4.54,6.47a5.18,5.18,0,0,0,5.2-5.25V315.65h3.7Z"/><path class="cls-26" d="M254.42,309.81v5.84h5.29v2.81h-5.29v11c0,2.53.71,3.95,2.77,3.95a8.07,8.07,0,0,0,2.14-.25l.17,2.77a8.94,8.94,0,0,1-3.28.51,5.12,5.12,0,0,1-4-1.56c-1-1.09-1.43-2.89-1.43-5.29V318.46h-3.15v-2.81h3.15v-4.88Z"/><path class="cls-26" d="M277.89,307.66v16.77c0,6.34,2.82,9,6.6,9,4.2,0,6.89-2.78,6.89-9V307.66h3.69v16.51c0,8.7-4.58,12.27-10.71,12.27-5.8,0-10.16-3.32-10.16-12.1V307.66Z"/><path class="cls-26" d="M302,322.28c0-2.6-.09-4.7-.17-6.63h3.32l.17,3.48h.08a8,8,0,0,1,7.22-3.95c4.92,0,8.62,4.16,8.62,10.34,0,7.31-4.46,10.92-9.24,10.92a7.13,7.13,0,0,1-6.26-3.19h-.09v11H302Zm3.65,5.42a8.6,8.6,0,0,0,.17,1.51,5.7,5.7,0,0,0,5.55,4.33c3.9,0,6.17-3.19,6.17-7.85,0-4.08-2.14-7.57-6.05-7.57a5.91,5.91,0,0,0-5.59,4.58,6.36,6.36,0,0,0-.25,1.52Z"/><path class="cls-26" d="M326,332.2a9.74,9.74,0,0,0,4.88,1.47c2.68,0,3.94-1.35,3.94-3s-1-2.73-3.78-3.74c-3.65-1.3-5.37-3.32-5.37-5.75,0-3.28,2.64-6,7-6a10.16,10.16,0,0,1,5,1.26l-.92,2.69a8,8,0,0,0-4.16-1.17c-2.19,0-3.41,1.26-3.41,2.77,0,1.68,1.22,2.44,3.87,3.44,3.53,1.35,5.34,3.11,5.34,6.14,0,3.57-2.78,6.09-7.61,6.09A11.58,11.58,0,0,1,325.1,335Z"/><path class="cls-26" d="M345.89,326.48c.08,5,3.28,7.06,7,7.06a13.34,13.34,0,0,0,5.63-1.05l.63,2.65a16.43,16.43,0,0,1-6.76,1.26c-6.26,0-10-4.12-10-10.25s3.61-11,9.54-11c6.63,0,8.4,5.84,8.4,9.58a13.93,13.93,0,0,1-.13,1.72Zm10.84-2.64c0-2.35-1-6-5.13-6-3.74,0-5.38,3.45-5.67,6Z"/><path class="cls-26" d="M365.54,306.15h3.7V336h-3.7Z"/><path class="cls-26" d="M376.13,306.15h3.7V336h-3.7Z"/><path class="cls-26" d="M138.73,358.06H154v3.07H142.38v9.41h10.71v3H142.38v12.81h-3.65Z"/><path class="cls-26" d="M175.27,380.83c0,2.1,0,3.95.17,5.55h-3.28l-.21-3.32h-.08a7.65,7.65,0,0,1-6.72,3.78c-3.2,0-7-1.76-7-8.91V366.05h3.7V377.3c0,3.87,1.17,6.47,4.53,6.47a5.18,5.18,0,0,0,5.21-5.25V366.05h3.7Z"/><path class="cls-26" d="M182.07,371.55c0-2.1,0-3.82-.17-5.5h3.28l.21,3.36h.08a7.47,7.47,0,0,1,6.72-3.83c2.82,0,7.19,1.68,7.19,8.66v12.14h-3.7V374.66c0-3.28-1.22-6-4.71-6a5.41,5.41,0,0,0-5.2,5.5v12.23h-3.7Z"/><path class="cls-26" d="M206.05,371.55c0-2.1,0-3.82-.17-5.5h3.28l.21,3.36h.08a7.47,7.47,0,0,1,6.72-3.83c2.82,0,7.19,1.68,7.19,8.66v12.14h-3.7V374.66c0-3.28-1.22-6-4.7-6a5.41,5.41,0,0,0-5.21,5.5v12.23h-3.7Z"/><path class="cls-26" d="M232.09,376.88c.08,5,3.28,7.06,7,7.06a13.31,13.31,0,0,0,5.63-1.05l.63,2.65a16.43,16.43,0,0,1-6.76,1.26c-6.26,0-10-4.12-10-10.25s3.61-11,9.54-11c6.64,0,8.4,5.84,8.4,9.58a12.18,12.18,0,0,1-.13,1.72Zm10.84-2.64c0-2.35-1-6-5.13-6-3.73,0-5.37,3.45-5.67,6Z"/><path class="cls-26" d="M251.75,356.55h3.69v29.83h-3.69Z"/></svg>